<mxfile host="app.diagrams.net" modified="2021-06-22T15:13:58.869Z" agent="5.0 (Macintosh; Intel Mac OS X 10_15_7) AppleWebKit/537.36 (KHTML, like Gecko) Chrome/91.0.4472.106 Safari/537.36" etag="7uGanDWxkV9ZuasOI3sc" version="14.7.8" type="github">
  <diagram id="-L4U7Z0A7fKLkXoDf4Kx" name="Page-1">
    <mxGraphModel dx="1042" dy="567" grid="1" gridSize="10" guides="1" tooltips="1" connect="1" arrows="1" fold="1" page="1" pageScale="1" pageWidth="827" pageHeight="1169" math="0" shadow="0">
      <root>
        <mxCell id="0" />
        <mxCell id="1" parent="0" />
        <mxCell id="LaTO0p25xgsMGcaRmSat-6" value="" style="edgeStyle=orthogonalEdgeStyle;rounded=0;orthogonalLoop=1;jettySize=auto;html=1;" edge="1" parent="1" source="LaTO0p25xgsMGcaRmSat-1" target="LaTO0p25xgsMGcaRmSat-5">
          <mxGeometry relative="1" as="geometry" />
        </mxCell>
        <mxCell id="LaTO0p25xgsMGcaRmSat-1" value="保存pureSQLdataflow" style="rounded=1;whiteSpace=wrap;html=1;" vertex="1" parent="1">
          <mxGeometry x="110" y="220" width="130" height="40" as="geometry" />
        </mxCell>
        <mxCell id="LaTO0p25xgsMGcaRmSat-4" value="前端保存的内容" style="text;html=1;strokeColor=none;fillColor=none;align=center;verticalAlign=middle;whiteSpace=wrap;rounded=0;" vertex="1" parent="1">
          <mxGeometry x="100" y="180" width="140" height="20" as="geometry" />
        </mxCell>
        <mxCell id="LaTO0p25xgsMGcaRmSat-5" value="根据dataflow构建执行的流程" style="rounded=1;whiteSpace=wrap;html=1;" vertex="1" parent="1">
          <mxGeometry x="110" y="370" width="130" height="40" as="geometry" />
        </mxCell>
        <mxCell id="LaTO0p25xgsMGcaRmSat-7" value="" style="shape=curlyBracket;whiteSpace=wrap;html=1;rounded=1;" vertex="1" parent="1">
          <mxGeometry x="290" y="180" width="20" height="120" as="geometry" />
        </mxCell>
        <mxCell id="LaTO0p25xgsMGcaRmSat-8" value="1、整个dataflow的配置" style="text;html=1;align=center;verticalAlign=middle;resizable=0;points=[];autosize=1;strokeColor=none;" vertex="1" parent="1">
          <mxGeometry x="310" y="180" width="140" height="20" as="geometry" />
        </mxCell>
        <mxCell id="LaTO0p25xgsMGcaRmSat-9" value="2、整个sql" style="text;html=1;align=center;verticalAlign=middle;resizable=0;points=[];autosize=1;strokeColor=none;" vertex="1" parent="1">
          <mxGeometry x="345" y="230" width="70" height="20" as="geometry" />
        </mxCell>
        <mxCell id="LaTO0p25xgsMGcaRmSat-11" value="" style="edgeStyle=orthogonalEdgeStyle;rounded=0;orthogonalLoop=1;jettySize=auto;html=1;" edge="1" parent="1" source="LaTO0p25xgsMGcaRmSat-10" target="LaTO0p25xgsMGcaRmSat-9">
          <mxGeometry relative="1" as="geometry" />
        </mxCell>
        <mxCell id="LaTO0p25xgsMGcaRmSat-10" value="数据源、输出源的填写，并输出到sql框中的接口" style="rounded=1;whiteSpace=wrap;html=1;" vertex="1" parent="1">
          <mxGeometry x="520" y="220" width="130" height="40" as="geometry" />
        </mxCell>
        <mxCell id="LaTO0p25xgsMGcaRmSat-12" value="save" style="text;html=1;align=center;verticalAlign=middle;resizable=0;points=[];autosize=1;strokeColor=none;" vertex="1" parent="1">
          <mxGeometry x="60" y="230" width="40" height="20" as="geometry" />
        </mxCell>
        <mxCell id="LaTO0p25xgsMGcaRmSat-13" value="runjob" style="text;html=1;align=center;verticalAlign=middle;resizable=0;points=[];autosize=1;strokeColor=none;" vertex="1" parent="1">
          <mxGeometry x="40" y="380" width="50" height="20" as="geometry" />
        </mxCell>
        <mxCell id="LaTO0p25xgsMGcaRmSat-16" value="" style="edgeStyle=orthogonalEdgeStyle;rounded=0;orthogonalLoop=1;jettySize=auto;html=1;" edge="1" parent="1" source="LaTO0p25xgsMGcaRmSat-14" target="LaTO0p25xgsMGcaRmSat-5">
          <mxGeometry relative="1" as="geometry" />
        </mxCell>
        <mxCell id="LaTO0p25xgsMGcaRmSat-14" value="" style="shape=curlyBracket;whiteSpace=wrap;html=1;rounded=1;" vertex="1" parent="1">
          <mxGeometry x="290" y="330" width="20" height="120" as="geometry" />
        </mxCell>
        <mxCell id="LaTO0p25xgsMGcaRmSat-15" value="2、sql解析与job执行" style="text;html=1;align=center;verticalAlign=middle;resizable=0;points=[];autosize=1;strokeColor=none;" vertex="1" parent="1">
          <mxGeometry x="315" y="420" width="130" height="20" as="geometry" />
        </mxCell>
        <mxCell id="LaTO0p25xgsMGcaRmSat-20" value="" style="edgeStyle=orthogonalEdgeStyle;rounded=0;orthogonalLoop=1;jettySize=auto;html=1;" edge="1" parent="1" source="LaTO0p25xgsMGcaRmSat-18" target="LaTO0p25xgsMGcaRmSat-15">
          <mxGeometry relative="1" as="geometry" />
        </mxCell>
        <mxCell id="LaTO0p25xgsMGcaRmSat-18" value="" style="shape=curlyBracket;whiteSpace=wrap;html=1;rounded=1;size=0.5;" vertex="1" parent="1">
          <mxGeometry x="470" y="370" width="20" height="120" as="geometry" />
        </mxCell>
        <mxCell id="LaTO0p25xgsMGcaRmSat-21" value="1、构建job的环境变量参数" style="text;html=1;align=center;verticalAlign=middle;resizable=0;points=[];autosize=1;strokeColor=none;" vertex="1" parent="1">
          <mxGeometry x="305" y="330" width="160" height="20" as="geometry" />
        </mxCell>
        <mxCell id="LaTO0p25xgsMGcaRmSat-22" value="1、sql拆分" style="text;html=1;align=center;verticalAlign=middle;resizable=0;points=[];autosize=1;strokeColor=none;" vertex="1" parent="1">
          <mxGeometry x="540" y="360" width="70" height="20" as="geometry" />
        </mxCell>
        <mxCell id="LaTO0p25xgsMGcaRmSat-23" value="2、gengen" style="text;html=1;align=center;verticalAlign=middle;resizable=0;points=[];autosize=1;strokeColor=none;" vertex="1" parent="1">
          <mxGeometry x="550" y="420" width="70" height="20" as="geometry" />
        </mxCell>
      </root>
    </mxGraphModel>
  </diagram>
</mxfile>
